<svg width="73" height="73" viewBox="0 0 73 73" fill="none" xmlns="http://www.w3.org/2000/svg">
<circle cx="36.5" cy="36.5" r="36.5" fill="#FF5E5E"/>
<g clip-path="url(#clip0)">
<path d="M26 32.9997C20.9312 32.9997 16.7812 36.6559 16.0062 41.4184C15.9562 41.7184 16.2125 41.9997 16.525 41.9997H35.4812C35.7937 41.9997 36.05 41.7184 36 41.4184C35.2187 36.6559 31.0687 32.9997 26 32.9997ZM35.475 43.9997H16.525C16.2125 43.9997 15.9562 44.2809 16.0062 44.5809C16.7812 49.3434 20.9312 52.9997 26 52.9997C31.0687 52.9997 35.2187 49.3434 35.9937 44.5809C36.0437 44.2809 35.7875 43.9997 35.475 43.9997V43.9997ZM53.0875 23.9122C49.5562 20.3809 44.075 20.0747 40.1562 22.9122C39.9062 23.0934 39.8875 23.4684 40.1062 23.6809L53.3125 36.8934C53.5312 37.1122 53.9062 37.0934 54.0812 36.8434C56.925 32.9247 56.6187 27.4434 53.0875 23.9122V23.9122ZM38.6875 25.1059C38.4687 24.8872 38.0937 24.9059 37.9187 25.1559C35.0812 29.0747 35.3875 34.5559 38.9125 38.0872C42.4437 41.6184 47.925 41.9247 51.8437 39.0809C52.0937 38.8997 52.1125 38.5247 51.8937 38.3122L38.6875 25.1059Z" fill="white"/>
</g>
<defs>
<clipPath id="clip0">
<rect width="40" height="32" fill="white" transform="translate(16 21)"/>
</clipPath>
</defs>
</svg>
