<svg width="73" height="73" viewBox="0 0 73 73" fill="none" xmlns="http://www.w3.org/2000/svg">
<circle cx="36.5" cy="36.5" r="36.5" fill="#4B7DFF"/>
<g clip-path="url(#clip0)">
<path d="M51.8853 26.4892C49.2933 26.5271 47.1636 28.6416 47.1106 31.2336C47.0727 33.0752 48.0579 34.6895 49.5358 35.5384V44.0722C49.5358 48.4149 45.7312 51.9542 41.0474 51.9542C36.5001 51.9542 32.7713 48.6119 32.5667 44.436C38.0841 43.2991 42.2525 38.4032 42.2525 32.5523V20.7747C42.2525 19.9107 41.6386 19.1604 40.7898 18.9936L36.0226 18.0387C35.0374 17.8417 34.0824 18.4783 33.8854 19.4635L33.6429 20.6534C33.4458 21.6387 34.0824 22.5936 35.0677 22.7907L37.3944 23.253V32.4538C37.3944 36.463 34.1961 39.7825 30.1869 39.8204C26.1398 39.8583 22.843 36.5843 22.843 32.5447V23.2606L25.1697 22.7982C26.1549 22.6012 26.7916 21.6463 26.5945 20.661L26.3596 19.4711C26.1625 18.4859 25.2076 17.8492 24.2223 18.0463L19.4628 18.9861C18.6139 19.1604 18 19.9031 18 20.7747V32.5523C18 38.4108 22.176 43.3143 27.7086 44.436C27.9057 51.2873 33.8096 56.8047 41.0399 56.8047C48.3914 56.8047 54.3787 51.0902 54.3787 44.0722V35.5384C55.8263 34.6971 56.804 33.1359 56.804 31.3397C56.804 28.634 54.5909 26.4513 51.8853 26.4892ZM51.9535 32.5523C51.2865 32.5523 50.7408 32.0066 50.7408 31.3397C50.7408 30.6727 51.2865 30.127 51.9535 30.127C52.6204 30.127 53.1661 30.6727 53.1661 31.3397C53.1661 32.0066 52.6204 32.5523 51.9535 32.5523Z" fill="white"/>
</g>
<defs>
<clipPath id="clip0">
<rect width="38.8039" height="38.8039" fill="white" transform="translate(18 18)"/>
</clipPath>
</defs>
</svg>
