<svg width="73" height="73" viewBox="0 0 73 73" fill="none" xmlns="http://www.w3.org/2000/svg">
<path d="M73 36.5C73 56.6584 56.6584 73 36.5 73C16.3416 73 0 56.6584 0 36.5C0 16.3416 16.3416 0 36.5 0C56.6584 0 73 16.3416 73 36.5Z" fill="#AD44FF"/>
<g clip-path="url(#clip0)">
<path d="M55 55.6339V57.2857H18V55.6339C18 55.0866 18.4438 54.6429 18.9911 54.6429H20.6429V24.9107C20.6429 23.816 21.5303 22.9286 22.625 22.9286H29.8929V16.9821C29.8929 15.8874 30.7803 15 31.875 15H41.125C42.2197 15 43.1071 15.8874 43.1071 16.9821V22.9286H50.375C51.4697 22.9286 52.3571 23.816 52.3571 24.9107V54.6429H54.0089C54.5562 54.6429 55 55.0866 55 55.6339ZM43.4375 30.8571H40.1339C39.5866 30.8571 39.1429 31.3009 39.1429 31.8482V35.1518C39.1429 35.6991 39.5866 36.1429 40.1339 36.1429H43.4375C43.9848 36.1429 44.4286 35.6991 44.4286 35.1518V31.8482C44.4286 31.3009 43.9848 30.8571 43.4375 30.8571ZM29.5625 36.1429H32.8661C33.4134 36.1429 33.8571 35.6991 33.8571 35.1518V31.8482C33.8571 31.3009 33.4134 30.8571 32.8661 30.8571H29.5625C29.0152 30.8571 28.5714 31.3009 28.5714 31.8482V35.1518C28.5714 35.6991 29.0152 36.1429 29.5625 36.1429ZM38.1518 46.7143H34.8482C34.3009 46.7143 33.8571 47.158 33.8571 47.7054V54.6429H39.1429V47.7054C39.1429 47.158 38.6991 46.7143 38.1518 46.7143ZM43.4375 38.7857H40.1339C39.5866 38.7857 39.1429 39.2295 39.1429 39.7768V43.0804C39.1429 43.6277 39.5866 44.0714 40.1339 44.0714H43.4375C43.9848 44.0714 44.4286 43.6277 44.4286 43.0804V39.7768C44.4286 39.2295 43.9848 38.7857 43.4375 38.7857ZM33.8571 39.7768C33.8571 39.2295 33.4134 38.7857 32.8661 38.7857H29.5625C29.0152 38.7857 28.5714 39.2295 28.5714 39.7768V43.0804C28.5714 43.6277 29.0152 44.0714 29.5625 44.0714H32.8661C33.4134 44.0714 33.8571 43.6277 33.8571 43.0804V39.7768ZM33.0312 22.9286H35.1786V25.0759C35.1786 25.2073 35.2308 25.3334 35.3237 25.4263C35.4166 25.5192 35.5427 25.5714 35.6741 25.5714H37.3259C37.4573 25.5714 37.5834 25.5192 37.6763 25.4263C37.7692 25.3334 37.8214 25.2073 37.8214 25.0759V22.9286H39.9687C40.1002 22.9286 40.2262 22.8764 40.3191 22.7834C40.4121 22.6905 40.4643 22.5645 40.4643 22.433V20.7812C40.4643 20.6498 40.4121 20.5238 40.3191 20.4309C40.2262 20.3379 40.1002 20.2857 39.9687 20.2857H37.8214V18.1384C37.8214 18.007 37.7692 17.8809 37.6763 17.788C37.5834 17.6951 37.4573 17.6429 37.3259 17.6429H35.6741C35.5427 17.6429 35.4166 17.6951 35.3237 17.788C35.2308 17.8809 35.1786 18.007 35.1786 18.1384V20.2857H33.0312C32.8998 20.2857 32.7738 20.3379 32.6809 20.4309C32.5879 20.5238 32.5357 20.6498 32.5357 20.7812V22.433C32.5357 22.5645 32.5879 22.6905 32.6809 22.7834C32.7738 22.8764 32.8998 22.9286 33.0312 22.9286Z" fill="white"/>
</g>
<defs>
<clipPath id="clip0">
<rect width="37" height="42.2857" fill="white" transform="translate(18 15)"/>
</clipPath>
</defs>
</svg>
