<svg width="73" height="73" viewBox="0 0 73 73" fill="none" xmlns="http://www.w3.org/2000/svg">
<circle cx="36.5" cy="36.5" r="36.5" fill="#FFA73F"/>
<g clip-path="url(#clip0)">
<path d="M29.3884 36.8725H17.367C16.6152 36.8725 16 37.4877 16 38.2396V40.9736C16 41.7255 16.6152 42.3407 17.367 42.3407H29.5166C30.875 42.3407 32.1481 43.272 32.3702 44.6134C32.6522 46.3222 31.3364 47.8088 29.6703 47.8088C28.4656 47.8088 27.4404 47.0228 27.073 45.9377C26.8936 45.3994 26.3382 45.0748 25.7743 45.0748H22.9719C22.1346 45.0748 21.4596 45.8266 21.6134 46.6468C22.3482 50.4147 25.6803 53.277 29.6618 53.277C34.5404 53.277 38.4365 48.9964 37.7957 43.9982C37.2745 39.8629 33.5493 36.8725 29.3884 36.8725ZM17.367 34.1385H46.0748C51.1755 34.1385 55.1997 29.4564 54.089 24.1677C53.4397 21.0747 50.9363 18.5714 47.8434 17.922C43.11 16.9309 38.8637 20.0495 38.0263 24.3727C37.864 25.1929 38.5475 25.9363 39.3763 25.9363H42.1787C42.7512 25.9363 43.298 25.6116 43.4774 25.0733C43.8448 23.9882 44.8701 23.2022 46.0748 23.2022C47.7323 23.2022 49.0566 24.6888 48.7747 26.3976C48.5525 27.739 47.288 28.6703 45.921 28.6703H17.367C16.6152 28.6703 16 29.2855 16 30.0374V32.7714C16 33.5233 16.6152 34.1385 17.367 34.1385ZM50.1759 36.8725H36.8217C38.4706 38.2908 39.6582 40.1876 40.2221 42.3407H50.1759C52.44 42.3407 54.277 44.1776 54.277 46.4418C54.277 48.7059 52.44 50.5429 50.1759 50.5429C48.6465 50.5429 47.3307 49.697 46.6216 48.4582C46.3738 48.031 45.8783 47.8088 45.3827 47.8088H42.4948C41.5636 47.8088 40.8715 48.7316 41.1876 49.6116C42.7084 53.9348 47.2111 56.8569 52.2435 55.7889C55.7636 55.0456 58.66 52.2346 59.4803 48.723C60.9413 42.4688 56.1994 36.8725 50.1759 36.8725Z" fill="white"/>
</g>
<defs>
<clipPath id="clip0">
<rect width="43.7451" height="43.7451" fill="white" transform="translate(16 15)"/>
</clipPath>
</defs>
</svg>
