<svg width="73" height="73" viewBox="0 0 73 73" fill="none" xmlns="http://www.w3.org/2000/svg">
<circle cx="36.5" cy="36.5" r="36.5" fill="#FFC634"/>
<path d="M57.6196 26.2322L42.7715 11.3841C42.5254 11.1382 42.1916 11 41.8437 11C41.4957 11 41.162 11.1382 40.9159 11.3841L39.0545 13.2381C38.9326 13.36 38.8359 13.5047 38.7699 13.6639C38.704 13.8232 38.67 13.9939 38.67 14.1663C38.67 14.3387 38.704 14.5094 38.7699 14.6687C38.8359 14.8279 38.9326 14.9726 39.0545 15.0945L53.9026 29.9426C54.0245 30.0645 54.1692 30.1612 54.3285 30.2272C54.4877 30.2932 54.6584 30.3271 54.8308 30.3271C55.0032 30.3271 55.1739 30.2932 55.3332 30.2272C55.4925 30.1612 55.6372 30.0645 55.759 29.9426L57.6146 28.0862C57.8608 27.8408 57.9995 27.5078 58.0004 27.1602C58.0013 26.8127 57.8644 26.4789 57.6196 26.2322V26.2322ZM42.8913 31.6801L37.322 26.1108L41.842 21.5908L38.13 17.8787L29.1334 26.8754C28.0898 27.919 27.3601 29.2347 27.0276 30.6727L24.752 40.5381L16.3845 48.9055C16.2626 49.0274 16.1659 49.1721 16.0999 49.3314C16.034 49.4906 16 49.6613 16 49.8337C16 50.0061 16.034 50.1768 16.0999 50.3361C16.1659 50.4953 16.2626 50.64 16.3845 50.7619L18.2401 52.6175C18.362 52.7394 18.5067 52.8361 18.666 52.9021C18.8253 52.9681 18.996 53.0021 19.1684 53.0021C19.3407 53.0021 19.5114 52.9681 19.6707 52.9021C19.83 52.8361 19.9747 52.7394 20.0966 52.6175L28.464 44.2501L38.3285 41.9737C39.7667 41.6424 41.0826 40.9132 42.1259 39.8695L51.1233 30.872L47.4113 27.1584L42.8913 31.6801ZM38.4147 36.1567C38.0662 36.5044 37.6271 36.7472 37.1473 36.8572L30.642 38.3601L32.1432 31.8548C32.2546 31.3752 32.4979 30.9362 32.8454 30.5874L33.6091 29.8237L39.1784 35.3929L38.4147 36.1567Z" fill="white"/>
</svg>
