<svg width="73" height="73" viewBox="0 0 73 73" fill="none" xmlns="http://www.w3.org/2000/svg">
<circle cx="36.5" cy="36.5" r="36.5" fill="#949494"/>
<path d="M59.875 41.75H58.75V34.1492C58.75 33.2562 58.3914 32.3984 57.7586 31.7656L50.7344 24.7414C50.1016 24.1086 49.2438 23.75 48.3508 23.75H45.25V20.375C45.25 18.5117 43.7383 17 41.875 17H19.375C17.5117 17 16 18.5117 16 20.375V42.875C16 44.7383 17.5117 46.25 19.375 46.25H20.5C20.5 49.9766 23.5234 53 27.25 53C30.9766 53 34 49.9766 34 46.25H43C43 49.9766 46.0234 53 49.75 53C53.4766 53 56.5 49.9766 56.5 46.25H59.875C60.4938 46.25 61 45.7438 61 45.125V42.875C61 42.2562 60.4938 41.75 59.875 41.75ZM27.25 49.625C25.3867 49.625 23.875 48.1133 23.875 46.25C23.875 44.3867 25.3867 42.875 27.25 42.875C29.1133 42.875 30.625 44.3867 30.625 46.25C30.625 48.1133 29.1133 49.625 27.25 49.625ZM37.375 32.1875C37.375 32.4969 37.1219 32.75 36.8125 32.75H32.875V36.6875C32.875 36.9969 32.6219 37.25 32.3125 37.25H28.9375C28.6281 37.25 28.375 36.9969 28.375 36.6875V32.75H24.4375C24.1281 32.75 23.875 32.4969 23.875 32.1875V28.8125C23.875 28.5031 24.1281 28.25 24.4375 28.25H28.375V24.3125C28.375 24.0031 28.6281 23.75 28.9375 23.75H32.3125C32.6219 23.75 32.875 24.0031 32.875 24.3125V28.25H36.8125C37.1219 28.25 37.375 28.5031 37.375 28.8125V32.1875ZM49.75 49.625C47.8867 49.625 46.375 48.1133 46.375 46.25C46.375 44.3867 47.8867 42.875 49.75 42.875C51.6133 42.875 53.125 44.3867 53.125 46.25C53.125 48.1133 51.6133 49.625 49.75 49.625ZM55.375 35H45.25V27.125H48.3508L55.375 34.1492V35Z" fill="white"/>
</svg>
