<svg width="512" height="512" viewBox="0 0 512 512" fill="none" xmlns="http://www.w3.org/2000/svg">
<g clip-path="url(#clip0)">
<path d="M458.622 255.92L504.607 210.915C518.315 197.938 511.923 174.876 493.943 170.576L431.293 154.586L448.954 92.571C453.945 74.733 437.125 57.908 419.293 62.9L357.299 80.567L341.315 17.896C337.085 0.196957 313.765 -6.27604 300.99 7.22796L256 53.57L211.011 7.22896C198.381 -6.12204 174.964 -0.00504494 170.686 17.897L154.702 80.568L92.707 62.901C74.87 57.907 58.056 74.738 63.046 92.572L80.707 154.587L18.057 170.577C0.0689659 174.878 -6.31003 197.944 7.39197 210.915L53.377 255.92L7.39197 300.924C-6.31603 313.901 0.0759678 336.963 18.056 341.263L80.706 357.253L63.045 419.268C58.054 437.106 74.874 453.931 92.706 448.939L154.7 431.272L170.684 493.943C175.123 512.518 198.38 517.961 211.009 504.611L256 458.61L300.989 504.611C313.489 518.099 336.976 512.097 341.314 493.943L357.298 431.272L419.292 448.939C437.128 453.933 453.943 437.102 448.953 419.268L431.292 357.253L493.942 341.263C511.929 336.961 518.308 313.896 504.606 300.924L458.622 255.92V255.92Z" fill="#518CFF"/>
<path d="M220.722 334.806L149.222 263.306C144.926 259.011 144.926 252.046 149.222 247.75L164.778 232.193C169.073 227.897 176.038 227.897 180.334 232.193L228.5 280.359L331.666 177.193C335.961 172.898 342.927 172.898 347.222 177.193L362.778 192.75C367.074 197.045 367.074 204.01 362.778 208.306L236.278 334.807C231.982 339.102 225.017 339.102 220.722 334.806V334.806Z" fill="white"/>
</g>
<defs>
<clipPath id="clip0">
<rect width="512" height="512" fill="white"/>
</clipPath>
</defs>
</svg>
